<mxfile host="app.diagrams.net" agent="Mozilla/5.0 (Windows NT 10.0; Win64; x64) AppleWebKit/537.36 (KHTML, like Gecko) Chrome/135.0.0.0 Safari/537.36" version="26.1.3">
  <diagram name="Page-1" id="c4acf3e9-155e-7222-9cf6-157b1a14988f">
    <mxGraphModel dx="712" dy="737" grid="1" gridSize="10" guides="1" tooltips="1" connect="1" arrows="1" fold="1" page="1" pageScale="1" pageWidth="850" pageHeight="1100" background="none" math="0" shadow="0">
      <root>
        <mxCell id="0" />
        <mxCell id="1" parent="0" />
        <mxCell id="4WlyQMW6RwUoJhCsdgET-1" value="Extends" style="endArrow=block;endSize=16;endFill=0;html=1;rounded=0;exitX=0.5;exitY=0;exitDx=0;exitDy=0;entryX=0.498;entryY=1;entryDx=0;entryDy=0;entryPerimeter=0;" edge="1" parent="1" source="4WlyQMW6RwUoJhCsdgET-8" target="4WlyQMW6RwUoJhCsdgET-16">
          <mxGeometry width="160" relative="1" as="geometry">
            <mxPoint x="430" y="280" as="sourcePoint" />
            <mxPoint x="550" y="340" as="targetPoint" />
          </mxGeometry>
        </mxCell>
        <mxCell id="4WlyQMW6RwUoJhCsdgET-3" value="Producto" style="swimlane;fontStyle=1;align=center;verticalAlign=top;childLayout=stackLayout;horizontal=1;startSize=26;horizontalStack=0;resizeParent=1;resizeParentMax=0;resizeLast=0;collapsible=1;marginBottom=0;whiteSpace=wrap;html=1;" vertex="1" parent="1">
          <mxGeometry x="270" y="40" width="295" height="268" as="geometry" />
        </mxCell>
        <mxCell id="17acba5748e5396b-21" value="- nombre: String" style="text;html=1;strokeColor=none;fillColor=none;align=left;verticalAlign=top;spacingLeft=4;spacingRight=4;whiteSpace=wrap;overflow=hidden;rotatable=0;points=[[0,0.5],[1,0.5]];portConstraint=eastwest;" parent="4WlyQMW6RwUoJhCsdgET-3" vertex="1">
          <mxGeometry y="26" width="295" height="26" as="geometry" />
        </mxCell>
        <mxCell id="17acba5748e5396b-24" value="- precio: double" style="text;html=1;strokeColor=none;fillColor=none;align=left;verticalAlign=top;spacingLeft=4;spacingRight=4;whiteSpace=wrap;overflow=hidden;rotatable=0;points=[[0,0.5],[1,0.5]];portConstraint=eastwest;" parent="4WlyQMW6RwUoJhCsdgET-3" vertex="1">
          <mxGeometry y="52" width="295" height="26" as="geometry" />
        </mxCell>
        <mxCell id="17acba5748e5396b-26" value="- esPrecioCuidado: boolean" style="text;html=1;strokeColor=none;fillColor=none;align=left;verticalAlign=top;spacingLeft=4;spacingRight=4;whiteSpace=wrap;overflow=hidden;rotatable=0;points=[[0,0.5],[1,0.5]];portConstraint=eastwest;" parent="4WlyQMW6RwUoJhCsdgET-3" vertex="1">
          <mxGeometry y="78" width="295" height="26" as="geometry" />
        </mxCell>
        <mxCell id="4WlyQMW6RwUoJhCsdgET-5" value="" style="line;strokeWidth=1;fillColor=none;align=left;verticalAlign=middle;spacingTop=-1;spacingLeft=3;spacingRight=3;rotatable=0;labelPosition=right;points=[];portConstraint=eastwest;strokeColor=inherit;" vertex="1" parent="4WlyQMW6RwUoJhCsdgET-3">
          <mxGeometry y="104" width="295" height="8" as="geometry" />
        </mxCell>
        <mxCell id="4WlyQMW6RwUoJhCsdgET-7" value="&lt;u&gt;+ new Producto(String, double, boolean): Producto&lt;/u&gt;" style="text;strokeColor=none;fillColor=none;align=left;verticalAlign=top;spacingLeft=4;spacingRight=4;overflow=hidden;rotatable=0;points=[[0,0.5],[1,0.5]];portConstraint=eastwest;whiteSpace=wrap;html=1;" vertex="1" parent="4WlyQMW6RwUoJhCsdgET-3">
          <mxGeometry y="112" width="295" height="26" as="geometry" />
        </mxCell>
        <mxCell id="4WlyQMW6RwUoJhCsdgET-18" value="&lt;u&gt;+ new Producto(String, double): Producto&lt;/u&gt;" style="text;strokeColor=none;fillColor=none;align=left;verticalAlign=top;spacingLeft=4;spacingRight=4;overflow=hidden;rotatable=0;points=[[0,0.5],[1,0.5]];portConstraint=eastwest;whiteSpace=wrap;html=1;" vertex="1" parent="4WlyQMW6RwUoJhCsdgET-3">
          <mxGeometry y="138" width="295" height="26" as="geometry" />
        </mxCell>
        <mxCell id="4WlyQMW6RwUoJhCsdgET-15" value="+ getNombre(): String" style="text;strokeColor=none;fillColor=none;align=left;verticalAlign=top;spacingLeft=4;spacingRight=4;overflow=hidden;rotatable=0;points=[[0,0.5],[1,0.5]];portConstraint=eastwest;whiteSpace=wrap;html=1;" vertex="1" parent="4WlyQMW6RwUoJhCsdgET-3">
          <mxGeometry y="164" width="295" height="26" as="geometry" />
        </mxCell>
        <mxCell id="4WlyQMW6RwUoJhCsdgET-17" value="+ getPrecio(): double" style="text;strokeColor=none;fillColor=none;align=left;verticalAlign=top;spacingLeft=4;spacingRight=4;overflow=hidden;rotatable=0;points=[[0,0.5],[1,0.5]];portConstraint=eastwest;whiteSpace=wrap;html=1;" vertex="1" parent="4WlyQMW6RwUoJhCsdgET-3">
          <mxGeometry y="190" width="295" height="26" as="geometry" />
        </mxCell>
        <mxCell id="4WlyQMW6RwUoJhCsdgET-6" value="+ esPrecioCuidado(): boolean" style="text;strokeColor=none;fillColor=none;align=left;verticalAlign=top;spacingLeft=4;spacingRight=4;overflow=hidden;rotatable=0;points=[[0,0.5],[1,0.5]];portConstraint=eastwest;whiteSpace=wrap;html=1;" vertex="1" parent="4WlyQMW6RwUoJhCsdgET-3">
          <mxGeometry y="216" width="295" height="26" as="geometry" />
        </mxCell>
        <mxCell id="4WlyQMW6RwUoJhCsdgET-16" value="# aumentarPrecio(double): void" style="text;strokeColor=none;fillColor=none;align=left;verticalAlign=top;spacingLeft=4;spacingRight=4;overflow=hidden;rotatable=0;points=[[0,0.5],[1,0.5]];portConstraint=eastwest;whiteSpace=wrap;html=1;" vertex="1" parent="4WlyQMW6RwUoJhCsdgET-3">
          <mxGeometry y="242" width="295" height="26" as="geometry" />
        </mxCell>
        <mxCell id="4WlyQMW6RwUoJhCsdgET-8" value="ProductoPrimeraNecesidad" style="swimlane;fontStyle=1;align=center;verticalAlign=top;childLayout=stackLayout;horizontal=1;startSize=26;horizontalStack=0;resizeParent=1;resizeParentMax=0;resizeLast=0;collapsible=1;marginBottom=0;whiteSpace=wrap;html=1;" vertex="1" parent="1">
          <mxGeometry x="270" y="440" width="295" height="166" as="geometry" />
        </mxCell>
        <mxCell id="4WlyQMW6RwUoJhCsdgET-9" value="- descuento: double" style="text;html=1;strokeColor=none;fillColor=none;align=left;verticalAlign=top;spacingLeft=4;spacingRight=4;whiteSpace=wrap;overflow=hidden;rotatable=0;points=[[0,0.5],[1,0.5]];portConstraint=eastwest;" vertex="1" parent="4WlyQMW6RwUoJhCsdgET-8">
          <mxGeometry y="26" width="295" height="26" as="geometry" />
        </mxCell>
        <mxCell id="4WlyQMW6RwUoJhCsdgET-12" value="" style="line;strokeWidth=1;fillColor=none;align=left;verticalAlign=middle;spacingTop=-1;spacingLeft=3;spacingRight=3;rotatable=0;labelPosition=right;points=[];portConstraint=eastwest;strokeColor=inherit;" vertex="1" parent="4WlyQMW6RwUoJhCsdgET-8">
          <mxGeometry y="52" width="295" height="8" as="geometry" />
        </mxCell>
        <mxCell id="4WlyQMW6RwUoJhCsdgET-13" value="&lt;u&gt;+ new ProductoPrimeraNecesidad(String, double, double): ProductoPrimeraNecesidad&lt;/u&gt;" style="text;strokeColor=none;fillColor=none;align=left;verticalAlign=top;spacingLeft=4;spacingRight=4;overflow=hidden;rotatable=0;points=[[0,0.5],[1,0.5]];portConstraint=eastwest;whiteSpace=wrap;html=1;" vertex="1" parent="4WlyQMW6RwUoJhCsdgET-8">
          <mxGeometry y="60" width="295" height="40" as="geometry" />
        </mxCell>
        <mxCell id="4WlyQMW6RwUoJhCsdgET-19" value="&lt;u&gt;+ new ProductoPrimeraNecesidad(String, double, boolean, double): ProductoPrimeraNecesidad&lt;/u&gt;" style="text;strokeColor=none;fillColor=none;align=left;verticalAlign=top;spacingLeft=4;spacingRight=4;overflow=hidden;rotatable=0;points=[[0,0.5],[1,0.5]];portConstraint=eastwest;whiteSpace=wrap;html=1;" vertex="1" parent="4WlyQMW6RwUoJhCsdgET-8">
          <mxGeometry y="100" width="295" height="40" as="geometry" />
        </mxCell>
        <mxCell id="4WlyQMW6RwUoJhCsdgET-14" value="+ getPrecio(): double" style="text;strokeColor=none;fillColor=none;align=left;verticalAlign=top;spacingLeft=4;spacingRight=4;overflow=hidden;rotatable=0;points=[[0,0.5],[1,0.5]];portConstraint=eastwest;whiteSpace=wrap;html=1;" vertex="1" parent="4WlyQMW6RwUoJhCsdgET-8">
          <mxGeometry y="140" width="295" height="26" as="geometry" />
        </mxCell>
        <mxCell id="4WlyQMW6RwUoJhCsdgET-21" value="Supermercado" style="swimlane;fontStyle=1;align=center;verticalAlign=top;childLayout=stackLayout;horizontal=1;startSize=26;horizontalStack=0;resizeParent=1;resizeParentMax=0;resizeLast=0;collapsible=1;marginBottom=0;whiteSpace=wrap;html=1;" vertex="1" parent="1">
          <mxGeometry x="680" y="40" width="295" height="188" as="geometry" />
        </mxCell>
        <mxCell id="4WlyQMW6RwUoJhCsdgET-27" value="- nombre: String" style="text;html=1;strokeColor=none;fillColor=none;align=left;verticalAlign=top;spacingLeft=4;spacingRight=4;whiteSpace=wrap;overflow=hidden;rotatable=0;points=[[0,0.5],[1,0.5]];portConstraint=eastwest;" vertex="1" parent="4WlyQMW6RwUoJhCsdgET-21">
          <mxGeometry y="26" width="295" height="26" as="geometry" />
        </mxCell>
        <mxCell id="4WlyQMW6RwUoJhCsdgET-28" value="- direccion: String" style="text;html=1;strokeColor=none;fillColor=none;align=left;verticalAlign=top;spacingLeft=4;spacingRight=4;whiteSpace=wrap;overflow=hidden;rotatable=0;points=[[0,0.5],[1,0.5]];portConstraint=eastwest;" vertex="1" parent="4WlyQMW6RwUoJhCsdgET-21">
          <mxGeometry y="52" width="295" height="26" as="geometry" />
        </mxCell>
        <mxCell id="4WlyQMW6RwUoJhCsdgET-23" value="" style="line;strokeWidth=1;fillColor=none;align=left;verticalAlign=middle;spacingTop=-1;spacingLeft=3;spacingRight=3;rotatable=0;labelPosition=right;points=[];portConstraint=eastwest;strokeColor=inherit;" vertex="1" parent="4WlyQMW6RwUoJhCsdgET-21">
          <mxGeometry y="78" width="295" height="8" as="geometry" />
        </mxCell>
        <mxCell id="4WlyQMW6RwUoJhCsdgET-24" value="&lt;u&gt;+ new Supermercado(String, String): Supermercado&lt;/u&gt;" style="text;strokeColor=none;fillColor=none;align=left;verticalAlign=top;spacingLeft=4;spacingRight=4;overflow=hidden;rotatable=0;points=[[0,0.5],[1,0.5]];portConstraint=eastwest;whiteSpace=wrap;html=1;" vertex="1" parent="4WlyQMW6RwUoJhCsdgET-21">
          <mxGeometry y="86" width="295" height="24" as="geometry" />
        </mxCell>
        <mxCell id="4WlyQMW6RwUoJhCsdgET-26" value="+ agregarProducto(Producto): void" style="text;strokeColor=none;fillColor=none;align=left;verticalAlign=top;spacingLeft=4;spacingRight=4;overflow=hidden;rotatable=0;points=[[0,0.5],[1,0.5]];portConstraint=eastwest;whiteSpace=wrap;html=1;" vertex="1" parent="4WlyQMW6RwUoJhCsdgET-21">
          <mxGeometry y="110" width="295" height="26" as="geometry" />
        </mxCell>
        <mxCell id="4WlyQMW6RwUoJhCsdgET-34" value="+ getCantidadDeProductos(): int" style="text;strokeColor=none;fillColor=none;align=left;verticalAlign=top;spacingLeft=4;spacingRight=4;overflow=hidden;rotatable=0;points=[[0,0.5],[1,0.5]];portConstraint=eastwest;whiteSpace=wrap;html=1;" vertex="1" parent="4WlyQMW6RwUoJhCsdgET-21">
          <mxGeometry y="136" width="295" height="26" as="geometry" />
        </mxCell>
        <mxCell id="4WlyQMW6RwUoJhCsdgET-33" value="+ getPrecioTotal(): double" style="text;strokeColor=none;fillColor=none;align=left;verticalAlign=top;spacingLeft=4;spacingRight=4;overflow=hidden;rotatable=0;points=[[0,0.5],[1,0.5]];portConstraint=eastwest;whiteSpace=wrap;html=1;" vertex="1" parent="4WlyQMW6RwUoJhCsdgET-21">
          <mxGeometry y="162" width="295" height="26" as="geometry" />
        </mxCell>
        <mxCell id="4WlyQMW6RwUoJhCsdgET-30" value="Relation" style="endArrow=open;html=1;endSize=12;startArrow=diamondThin;startSize=14;startFill=0;edgeStyle=orthogonalEdgeStyle;rounded=0;exitX=0.993;exitY=0.045;exitDx=0;exitDy=0;exitPerimeter=0;entryX=0;entryY=0.5;entryDx=0;entryDy=0;" edge="1" parent="1" source="4WlyQMW6RwUoJhCsdgET-3" target="4WlyQMW6RwUoJhCsdgET-24">
          <mxGeometry relative="1" as="geometry">
            <mxPoint x="570" y="240" as="sourcePoint" />
            <mxPoint x="730" y="240" as="targetPoint" />
          </mxGeometry>
        </mxCell>
        <mxCell id="4WlyQMW6RwUoJhCsdgET-31" value="0..n" style="edgeLabel;resizable=0;html=1;align=left;verticalAlign=top;" connectable="0" vertex="1" parent="4WlyQMW6RwUoJhCsdgET-30">
          <mxGeometry x="-1" relative="1" as="geometry">
            <mxPoint x="17" y="-22" as="offset" />
          </mxGeometry>
        </mxCell>
        <mxCell id="4WlyQMW6RwUoJhCsdgET-32" value="1" style="edgeLabel;resizable=0;html=1;align=right;verticalAlign=top;" connectable="0" vertex="1" parent="4WlyQMW6RwUoJhCsdgET-30">
          <mxGeometry x="1" relative="1" as="geometry">
            <mxPoint x="-20" as="offset" />
          </mxGeometry>
        </mxCell>
        <mxCell id="4WlyQMW6RwUoJhCsdgET-35" value="Trabajador" style="swimlane;fontStyle=1;align=center;verticalAlign=top;childLayout=stackLayout;horizontal=1;startSize=26;horizontalStack=0;resizeParent=1;resizeParentMax=0;resizeLast=0;collapsible=1;marginBottom=0;whiteSpace=wrap;html=1;" vertex="1" parent="1">
          <mxGeometry x="270" y="720" width="295" height="164" as="geometry" />
        </mxCell>
        <mxCell id="4WlyQMW6RwUoJhCsdgET-39" value="" style="line;strokeWidth=1;fillColor=none;align=left;verticalAlign=middle;spacingTop=-1;spacingLeft=3;spacingRight=3;rotatable=0;labelPosition=right;points=[];portConstraint=eastwest;strokeColor=inherit;" vertex="1" parent="4WlyQMW6RwUoJhCsdgET-35">
          <mxGeometry y="26" width="295" height="8" as="geometry" />
        </mxCell>
        <mxCell id="4WlyQMW6RwUoJhCsdgET-40" value="&lt;u&gt;+ new Trabajador(): Trabajador&lt;/u&gt;" style="text;strokeColor=none;fillColor=none;align=left;verticalAlign=top;spacingLeft=4;spacingRight=4;overflow=hidden;rotatable=0;points=[[0,0.5],[1,0.5]];portConstraint=eastwest;whiteSpace=wrap;html=1;" vertex="1" parent="4WlyQMW6RwUoJhCsdgET-35">
          <mxGeometry y="34" width="295" height="26" as="geometry" />
        </mxCell>
        <mxCell id="4WlyQMW6RwUoJhCsdgET-42" value="+ agregarIngreso(Ingreso): void" style="text;strokeColor=none;fillColor=none;align=left;verticalAlign=top;spacingLeft=4;spacingRight=4;overflow=hidden;rotatable=0;points=[[0,0.5],[1,0.5]];portConstraint=eastwest;whiteSpace=wrap;html=1;" vertex="1" parent="4WlyQMW6RwUoJhCsdgET-35">
          <mxGeometry y="60" width="295" height="26" as="geometry" />
        </mxCell>
        <mxCell id="4WlyQMW6RwUoJhCsdgET-43" value="+ getTotalPercibido(): double" style="text;strokeColor=none;fillColor=none;align=left;verticalAlign=top;spacingLeft=4;spacingRight=4;overflow=hidden;rotatable=0;points=[[0,0.5],[1,0.5]];portConstraint=eastwest;whiteSpace=wrap;html=1;" vertex="1" parent="4WlyQMW6RwUoJhCsdgET-35">
          <mxGeometry y="86" width="295" height="26" as="geometry" />
        </mxCell>
        <mxCell id="4WlyQMW6RwUoJhCsdgET-44" value="+ getMontoImponible(): double" style="text;strokeColor=none;fillColor=none;align=left;verticalAlign=top;spacingLeft=4;spacingRight=4;overflow=hidden;rotatable=0;points=[[0,0.5],[1,0.5]];portConstraint=eastwest;whiteSpace=wrap;html=1;" vertex="1" parent="4WlyQMW6RwUoJhCsdgET-35">
          <mxGeometry y="112" width="295" height="26" as="geometry" />
        </mxCell>
        <mxCell id="4WlyQMW6RwUoJhCsdgET-45" value="+ getImpuestoAPagar(): double" style="text;strokeColor=none;fillColor=none;align=left;verticalAlign=top;spacingLeft=4;spacingRight=4;overflow=hidden;rotatable=0;points=[[0,0.5],[1,0.5]];portConstraint=eastwest;whiteSpace=wrap;html=1;" vertex="1" parent="4WlyQMW6RwUoJhCsdgET-35">
          <mxGeometry y="138" width="295" height="26" as="geometry" />
        </mxCell>
        <mxCell id="4WlyQMW6RwUoJhCsdgET-46" value="Ingreso" style="swimlane;fontStyle=1;align=center;verticalAlign=top;childLayout=stackLayout;horizontal=1;startSize=26;horizontalStack=0;resizeParent=1;resizeParentMax=0;resizeLast=0;collapsible=1;marginBottom=0;whiteSpace=wrap;html=1;" vertex="1" parent="1">
          <mxGeometry x="660" y="720" width="295" height="188" as="geometry" />
        </mxCell>
        <mxCell id="4WlyQMW6RwUoJhCsdgET-47" value="- mesPercepcion: String" style="text;html=1;strokeColor=none;fillColor=none;align=left;verticalAlign=top;spacingLeft=4;spacingRight=4;whiteSpace=wrap;overflow=hidden;rotatable=0;points=[[0,0.5],[1,0.5]];portConstraint=eastwest;" vertex="1" parent="4WlyQMW6RwUoJhCsdgET-46">
          <mxGeometry y="26" width="295" height="26" as="geometry" />
        </mxCell>
        <mxCell id="4WlyQMW6RwUoJhCsdgET-48" value="- concepto: String" style="text;html=1;strokeColor=none;fillColor=none;align=left;verticalAlign=top;spacingLeft=4;spacingRight=4;whiteSpace=wrap;overflow=hidden;rotatable=0;points=[[0,0.5],[1,0.5]];portConstraint=eastwest;" vertex="1" parent="4WlyQMW6RwUoJhCsdgET-46">
          <mxGeometry y="52" width="295" height="26" as="geometry" />
        </mxCell>
        <mxCell id="4WlyQMW6RwUoJhCsdgET-54" value="- montoPercibido: double" style="text;html=1;strokeColor=none;fillColor=none;align=left;verticalAlign=top;spacingLeft=4;spacingRight=4;whiteSpace=wrap;overflow=hidden;rotatable=0;points=[[0,0.5],[1,0.5]];portConstraint=eastwest;" vertex="1" parent="4WlyQMW6RwUoJhCsdgET-46">
          <mxGeometry y="78" width="295" height="26" as="geometry" />
        </mxCell>
        <mxCell id="4WlyQMW6RwUoJhCsdgET-49" value="" style="line;strokeWidth=1;fillColor=none;align=left;verticalAlign=middle;spacingTop=-1;spacingLeft=3;spacingRight=3;rotatable=0;labelPosition=right;points=[];portConstraint=eastwest;strokeColor=inherit;" vertex="1" parent="4WlyQMW6RwUoJhCsdgET-46">
          <mxGeometry y="104" width="295" height="8" as="geometry" />
        </mxCell>
        <mxCell id="4WlyQMW6RwUoJhCsdgET-50" value="&lt;u&gt;+ new Ingreso(String, String, double): Ingreso&lt;/u&gt;" style="text;strokeColor=none;fillColor=none;align=left;verticalAlign=top;spacingLeft=4;spacingRight=4;overflow=hidden;rotatable=0;points=[[0,0.5],[1,0.5]];portConstraint=eastwest;whiteSpace=wrap;html=1;" vertex="1" parent="4WlyQMW6RwUoJhCsdgET-46">
          <mxGeometry y="112" width="295" height="24" as="geometry" />
        </mxCell>
        <mxCell id="4WlyQMW6RwUoJhCsdgET-55" value="+ getMontoPercibido(): double" style="text;strokeColor=none;fillColor=none;align=left;verticalAlign=top;spacingLeft=4;spacingRight=4;overflow=hidden;rotatable=0;points=[[0,0.5],[1,0.5]];portConstraint=eastwest;whiteSpace=wrap;html=1;" vertex="1" parent="4WlyQMW6RwUoJhCsdgET-46">
          <mxGeometry y="136" width="295" height="26" as="geometry" />
        </mxCell>
        <mxCell id="4WlyQMW6RwUoJhCsdgET-56" value="+ getMontoImponible(): double" style="text;strokeColor=none;fillColor=none;align=left;verticalAlign=top;spacingLeft=4;spacingRight=4;overflow=hidden;rotatable=0;points=[[0,0.5],[1,0.5]];portConstraint=eastwest;whiteSpace=wrap;html=1;" vertex="1" parent="4WlyQMW6RwUoJhCsdgET-46">
          <mxGeometry y="162" width="295" height="26" as="geometry" />
        </mxCell>
        <mxCell id="4WlyQMW6RwUoJhCsdgET-57" value="Relation" style="endArrow=open;html=1;endSize=12;startArrow=diamondThin;startSize=14;startFill=0;edgeStyle=orthogonalEdgeStyle;rounded=0;exitX=0.5;exitY=0;exitDx=0;exitDy=0;entryX=1;entryY=0.5;entryDx=0;entryDy=0;" edge="1" parent="1" source="4WlyQMW6RwUoJhCsdgET-46" target="4WlyQMW6RwUoJhCsdgET-42">
          <mxGeometry relative="1" as="geometry">
            <mxPoint x="640" y="620" as="sourcePoint" />
            <mxPoint x="757" y="706" as="targetPoint" />
            <Array as="points">
              <mxPoint x="808" y="680" />
              <mxPoint x="613" y="680" />
              <mxPoint x="613" y="793" />
            </Array>
          </mxGeometry>
        </mxCell>
        <mxCell id="4WlyQMW6RwUoJhCsdgET-58" value="0..n" style="edgeLabel;resizable=0;html=1;align=left;verticalAlign=top;" connectable="0" vertex="1" parent="4WlyQMW6RwUoJhCsdgET-57">
          <mxGeometry x="-1" relative="1" as="geometry">
            <mxPoint x="17" y="-22" as="offset" />
          </mxGeometry>
        </mxCell>
        <mxCell id="4WlyQMW6RwUoJhCsdgET-59" value="1" style="edgeLabel;resizable=0;html=1;align=right;verticalAlign=top;" connectable="0" vertex="1" parent="4WlyQMW6RwUoJhCsdgET-57">
          <mxGeometry x="1" relative="1" as="geometry">
            <mxPoint x="-20" as="offset" />
          </mxGeometry>
        </mxCell>
        <mxCell id="4WlyQMW6RwUoJhCsdgET-60" value="IngresoHorasExtras" style="swimlane;fontStyle=1;align=center;verticalAlign=top;childLayout=stackLayout;horizontal=1;startSize=26;horizontalStack=0;resizeParent=1;resizeParentMax=0;resizeLast=0;collapsible=1;marginBottom=0;whiteSpace=wrap;html=1;" vertex="1" parent="1">
          <mxGeometry x="660" y="1010" width="295" height="126" as="geometry" />
        </mxCell>
        <mxCell id="4WlyQMW6RwUoJhCsdgET-61" value="- cantHoras: int" style="text;html=1;strokeColor=none;fillColor=none;align=left;verticalAlign=top;spacingLeft=4;spacingRight=4;whiteSpace=wrap;overflow=hidden;rotatable=0;points=[[0,0.5],[1,0.5]];portConstraint=eastwest;" vertex="1" parent="4WlyQMW6RwUoJhCsdgET-60">
          <mxGeometry y="26" width="295" height="26" as="geometry" />
        </mxCell>
        <mxCell id="4WlyQMW6RwUoJhCsdgET-64" value="" style="line;strokeWidth=1;fillColor=none;align=left;verticalAlign=middle;spacingTop=-1;spacingLeft=3;spacingRight=3;rotatable=0;labelPosition=right;points=[];portConstraint=eastwest;strokeColor=inherit;" vertex="1" parent="4WlyQMW6RwUoJhCsdgET-60">
          <mxGeometry y="52" width="295" height="8" as="geometry" />
        </mxCell>
        <mxCell id="4WlyQMW6RwUoJhCsdgET-65" value="&lt;u&gt;+ new IngresoHorasExtras(String, String, double, int): IngresoHorasExtras&lt;/u&gt;" style="text;strokeColor=none;fillColor=none;align=left;verticalAlign=top;spacingLeft=4;spacingRight=4;overflow=hidden;rotatable=0;points=[[0,0.5],[1,0.5]];portConstraint=eastwest;whiteSpace=wrap;html=1;" vertex="1" parent="4WlyQMW6RwUoJhCsdgET-60">
          <mxGeometry y="60" width="295" height="40" as="geometry" />
        </mxCell>
        <mxCell id="4WlyQMW6RwUoJhCsdgET-67" value="+ getMontoImponible(): double" style="text;strokeColor=none;fillColor=none;align=left;verticalAlign=top;spacingLeft=4;spacingRight=4;overflow=hidden;rotatable=0;points=[[0,0.5],[1,0.5]];portConstraint=eastwest;whiteSpace=wrap;html=1;" vertex="1" parent="4WlyQMW6RwUoJhCsdgET-60">
          <mxGeometry y="100" width="295" height="26" as="geometry" />
        </mxCell>
        <mxCell id="4WlyQMW6RwUoJhCsdgET-68" value="Extends" style="endArrow=block;endSize=16;endFill=0;html=1;rounded=0;exitX=0.478;exitY=-0.011;exitDx=0;exitDy=0;entryX=0.481;entryY=0.962;entryDx=0;entryDy=0;entryPerimeter=0;exitPerimeter=0;" edge="1" parent="1" source="4WlyQMW6RwUoJhCsdgET-60" target="4WlyQMW6RwUoJhCsdgET-56">
          <mxGeometry width="160" relative="1" as="geometry">
            <mxPoint x="611" y="1100" as="sourcePoint" />
            <mxPoint x="610" y="968" as="targetPoint" />
          </mxGeometry>
        </mxCell>
      </root>
    </mxGraphModel>
  </diagram>
</mxfile>
